<?xml version="1.0" encoding="UTF-8"?>
<!DOCTYPE svg PUBLIC "-//W3C//DTD SVG 1.1//EN" "http://www.w3.org/Graphics/SVG/1.1/DTD/svg11.dtd">
<!-- Creator: CorelDRAW -->
<svg xmlns="http://www.w3.org/2000/svg" xml:space="preserve" width="1800mm" height="420mm" version="1.1" style="shape-rendering:geometricPrecision; text-rendering:geometricPrecision; image-rendering:optimizeQuality; fill-rule:evenodd; clip-rule:evenodd"
viewBox="0 0 180000 42000"
 xmlns:xlink="http://www.w3.org/1999/xlink"
 xmlns:xodm="http://www.corel.com/coreldraw/odm/2003">
 <defs>
  <style type="text/css">
   <![CDATA[
    .fil2 {fill:#BC6F02}
    .fil3 {fill:white}
    .fil4 {fill:white}
    .fil1 {fill:#BC6F02;fill-rule:nonzero}
    .fil0 {fill:white;fill-rule:nonzero}
   ]]>
  </style>
 </defs>
 <g id="Слой_x0020_1">
  <metadata id="CorelCorpID_0Corel-Layer"/>
  <g id="_1364778772800">
   <path class="fil0" d="M33706.94 31558.27l0 -15414.51c0,-337.51 108.68,-616.05 330.17,-839.67 221.49,-223.62 497.37,-333.34 831.67,-333.34l13788.14 0c317.59,0 589.33,113.89 810.82,345.95 225.72,232.06 338.53,506.43 338.53,827.06l0 1160.4c0,320.74 -108.68,595 -326.04,822.89 -213.13,223.62 -480.65,337.52 -802.45,337.52l-10356.73 0 0 2987.59 6043.57 0c1993.61,0 3602.66,472.56 4827.24,1417.79 1228.82,945.22 1843.13,2350.39 1843.13,4206.98 0,1860.95 -614.31,3261.86 -1847.26,4202.81 -1232.94,941.05 -2837.86,1413.61 -4823.11,1413.61l-9554.36 0c-321.81,0 -585.1,-109.72 -789.87,-329.17 -209,-215.18 -313.45,-485.27 -313.45,-805.91zm4614.11 -2358.83l6043.57 0c1370.84,0 2056.26,-708.9 2056.26,-2126.68 0,-1417.79 -685.42,-2126.78 -2056.26,-2126.78l-6043.57 0 0 4253.46z"/>
   <path class="fil0" d="M52055.69 19613.15c-52.91,-123.42 -79.27,-240.1 -82.61,-350.22 -3.25,-110.03 23.11,-213.39 82.61,-303.46 102.39,-183.4 280.8,-273.47 531.8,-273.47l2041.5 0c621,0 1050.41,296.81 1288.22,887.14l1113.25 2714.72c327.03,787.14 739.91,1374.09 1238.75,1760.96 495.5,386.87 1149.55,580.3 1965.48,580.3l1189.18 0 1750.78 -5036.02c92.45,-280.13 247.75,-500.27 475.63,-663.62 224.64,-163.44 469.14,-243.48 733.41,-243.48l1955.55 0c250.99,0 439.34,86.69 561.59,263.44 72.59,103.37 105.63,220.15 105.63,350.23 0,86.69 -16.52,176.75 -46.22,273.47l-3154.66 9114.81c-439.34,1283.93 -1099.98,2271.15 -1985.25,2964.85 -885.37,693.7 -2120.77,1040.55 -3706.41,1040.55l-2332.14 0c-251,0 -469.04,-83.41 -647.45,-253.51 -181.66,-166.72 -270.87,-370.18 -270.87,-610.28l0 -1033.9c0,-240.1 85.96,-443.57 261.03,-610.29 171.72,-170.1 393.12,-253.51 657.29,-253.51l310.6 0c171.72,0 439.34,0 796.06,0 360.07,0 634.28,0 829.12,0l201.52 0c1284.98,0 2163.66,-847.11 2632.7,-2541.35l-832.36 0c-1625.27,0 -2893.73,-333.44 -3802.21,-1000.43 -908.38,-667.09 -1691.27,-1754.31 -2341.97,-3258.38l-1519.55 -3518.55z"/>
   <path class="fil0" d="M68598.69 31776.23l0 -12163.08c0,-253.51 85.96,-470.27 261.03,-653.68 175.07,-183.4 386.43,-273.47 637.52,-273.47l7382.93 0c3894.57,0 5843.52,1814.29 5846.87,5442.85 3.24,3628.57 -1945.71,5442.86 -5846.87,5442.86l-4634.57 0 0 2201.15c0,253.51 -89.2,473.55 -267.61,650.3 -175.07,180.13 -389.77,270.19 -640.77,270.19l-1820.21 0c-251,0 -465.7,-90.06 -647.46,-270.19 -181.65,-176.75 -270.86,-393.52 -270.86,-646.93zm3646.91 -4966.02l3531.25 0c1083.46,0 1902.73,-183.4 2464.23,-550.21 561.59,-370.19 842.39,-1080.57 842.39,-2131.15 0,-1050.57 -280.8,-1760.96 -842.39,-2131.14 -561.5,-366.81 -1380.77,-550.31 -2464.23,-550.31l-3531.25 0 0 5362.81z"/>
   <path class="fil1" d="M115066.04 19613.15c-52.91,-123.42 -79.27,-240.1 -82.61,-350.22 -3.25,-110.03 23.11,-213.39 82.61,-303.46 102.39,-183.4 280.8,-273.47 531.8,-273.47l2041.5 0c621,0 1050.41,296.81 1288.22,887.14l1113.26 2714.72c327.02,787.14 739.9,1374.09 1238.75,1760.96 495.5,386.87 1149.54,580.3 1965.47,580.3l1189.18 0 1750.78 -5036.02c92.45,-280.13 247.75,-500.27 475.63,-663.62 224.64,-163.44 469.14,-243.48 733.42,-243.48l1955.54 0c250.99,0 439.34,86.69 561.59,263.44 72.59,103.37 105.63,220.15 105.63,350.23 0,86.69 -16.52,176.75 -46.22,273.47l-3154.66 9114.81c-439.34,1283.93 -1099.98,2271.15 -1985.25,2964.85 -885.37,693.7 -2120.77,1040.55 -3706.41,1040.55l-2332.14 0c-250.99,0 -469.04,-83.41 -647.45,-253.51 -181.66,-166.72 -270.87,-370.18 -270.87,-610.28l0 -1033.9c0,-240.1 85.96,-443.57 261.03,-610.29 171.72,-170.1 393.12,-253.51 657.29,-253.51l310.6 0c171.72,0 439.34,0 796.06,0 360.07,0 634.28,0 829.12,0l201.52 0c1284.98,0 2163.66,-847.11 2632.7,-2541.35l-832.36 0c-1625.27,0 -2893.72,-333.44 -3802.21,-1000.43 -908.38,-667.09 -1691.27,-1754.31 -2341.97,-3258.38l-1519.55 -3518.55z"/>
   <path class="fil1" d="M131609.04 31776.23l0 -12163.08c0,-266.81 89.21,-486.96 270.87,-663.71 178.41,-176.75 406.39,-263.44 677.25,-263.44l1760.61 0c257.68,0 478.98,86.69 663.98,263.44 181.66,176.75 274.21,390.25 274.21,643.66l0 9778.52 5526.43 -9758.47c148.61,-253.51 350.13,-470.27 611.16,-653.68 257.58,-183.4 498.74,-273.47 716.79,-273.47l2867.27 0c251,0 465.8,90.07 640.87,273.47 175.07,183.41 260.93,400.17 260.93,653.68l0 12163.08c0,253.41 -92.45,470.18 -280.8,646.93 -185,180.13 -409.64,270.19 -667.22,270.19l-1760.71 0c-257.68,0 -478.98,-90.06 -663.98,-270.19 -181.65,-176.75 -274.11,-393.52 -274.11,-646.93l0 -9064.76 -5067.32 9064.76c-151.95,253.41 -360.07,470.18 -634.27,646.93 -270.87,180.13 -531.79,270.19 -786.13,270.19l-3214.17 0c-251.09,0 -469.04,-90.06 -650.79,-270.19 -181.66,-176.75 -270.87,-393.52 -270.87,-646.93zm3904.6 -17075.67c0,-330.17 175.07,-496.99 528.45,-496.99l789.57 0c313.75,0 535.14,160.17 663.88,483.58 185,456.97 601.23,683.77 1242.1,680.39 644.11,-3.27 1057.09,-230.07 1235.4,-680.39 128.84,-323.41 353.48,-483.58 677.26,-483.58l792.72 0c353.48,0 531.89,166.82 531.89,496.99 0,887.13 -297.32,1587.48 -888.62,2107.71 -594.63,516.95 -1377.52,777.11 -2345.31,777.11 -971.23,0 -1750.77,-260.16 -2342.07,-777.11 -591.3,-520.23 -885.27,-1220.58 -885.27,-2107.71z"/>
   <path class="fil2" d="M86329.72 30063.75l2145.85 -3451.02c311.38,-483.65 657.21,-939.14 1037.19,-1366.51l18934.42 0c382.85,430.34 732.18,886.39 1051.23,1366.51l1983.81 3203.52c-280.42,318.28 -586.86,630.82 -929.89,853.17 -404.51,262.13 -795.73,360.95 -1229.21,96.62 -957.59,-584.12 -2010.76,-1139.43 -3097.89,-1420.65 -62.74,-16.2 -125.48,-31.52 -188.28,-45.7l-764.02 -1214.31c-514.07,-839.68 -1028.14,-1472.65 -1546.39,-1894.6 -518.25,-426.18 -1145.18,-637.19 -1880.8,-637.19l-551.65 0 0 5252.98c-12.54,5.04 -24.84,9.77 -37.01,14.05 -163.06,57.67 -276.17,21.18 -426.93,-62.46 -217.11,-120.5 -430.04,-256.13 -641.17,-387.22 -1062.16,-659.75 -2273.89,-1375.85 -3509.02,-1404.52l0 -3412.83 -551.72 0c-735.61,0 -1362.54,211.01 -1880.8,637.19 -518.25,421.95 -1036.5,1054.92 -1558.93,1894.6l-1272.41 2034.02c-236.65,-199.22 -492.16,-364.6 -813.4,-483.91 -772.88,-287.08 -1633.35,-173.7 -2410.04,36.05 -175.72,47.52 -358.69,139.98 -523.8,217.94 -306.64,144.77 -884.38,418.81 -1298.57,497.21 1.44,-111.55 -12.79,-219.96 -40.57,-322.94zm2957.25 -7833.04c-290.02,-357.17 -560.51,-767.59 -811.4,-1230.13l-2015.01 -3681.82c121.04,-186.61 272.55,-354.77 446.77,-487.06 204.45,-155.16 454.83,-269.87 714.96,-264.14 122.85,2.71 241.58,33.03 353.95,82.5 311.68,137.21 608.58,304.67 905.16,471.88 699.03,394.09 1368.29,766.45 2178.06,858.15 254.82,28.86 506.21,26.78 753.35,-0.44l875.7 1573.55c480.67,873.47 994.74,1506.43 1542.27,1907.27 547.46,400.91 1178.58,599.25 1897.46,599.25l551.72 0 0 -5250.01c469.49,227.02 931.81,565.9 1315.6,839.18 582.3,414.58 1233.83,728.89 1963.01,586.51 493.16,-96.3 928.64,-387.41 1335.52,-683.57l0 4507.89 551.65 0c718.89,0 1350,-198.34 1889.17,-590.8 543.34,-396.62 1057.41,-1033.8 1538.02,-1915.72l1217.23 -2172.8c134.09,43.68 272.36,79.86 416.18,106.7 858.22,160.28 1672.74,-72.29 2426.34,-487.12 299.51,-164.87 646.47,-313.05 988.37,-352 237.78,-27.1 471.99,0.95 679.74,126.94 215.31,130.59 381.05,345.75 500.78,565.52l-2003.16 3660.14c-250.88,462.54 -521.37,872.96 -811.33,1230.13l-19400.11 0z"/>
   <path class="fil2" d="M86128.74 35941.6l25716.49 0c171.32,0 327.75,71.27 441.92,186.04 113.67,115.27 184.27,273.2 184.27,446.84l0 2446.52c0,173.48 -70.6,332.07 -184.27,446.68 -114.17,114.76 -270.6,186.04 -441.92,186.04l-25716.49 0c-172.97,0 -329.4,-70.79 -443.57,-184.9l1.65 -1.14c-114.17,-114.61 -184.77,-273.2 -184.77,-446.68l0 -2446.52c0,-173.64 70.6,-331.57 184.77,-446.84l-1.65 -1.17c114.17,-114.1 270.6,-184.87 443.57,-184.87zm25716.49 -1180.43l-25716.49 0c-492.86,0 -941.51,203.57 -1266.48,532.33l-2.13 0c-324.98,328.09 -526.78,781.72 -526.78,1280.98l0 2446.52c0,499.76 201.8,952.87 526.78,1280.82l2.13 0c324.97,328.75 773.62,532.32 1266.48,532.32l25716.49 0c493.84,0 943.13,-203.57 1268.11,-532.32 325.63,-327.95 527.26,-781.06 527.26,-1280.82l0 -2446.52c0,-499.26 -201.63,-952.89 -527.26,-1280.98 -324.98,-328.76 -774.27,-532.33 -1268.11,-532.33l0 0z"/>
   <path class="fil2" d="M90999.57 2836.14c-2970.29,1657.02 -5313.41,4335.25 -6257.05,8034.14 -15.88,53.56 -24.9,110.62 -24.9,170 0,326.28 261.6,590.53 584.27,590.53l27369.53 0c47.5,-0.48 95.49,-6.27 144.14,-18.84 312.52,-79.88 501.87,-401.03 422.11,-716.72 -939.71,-3711.96 -3286.77,-6398.11 -6263.11,-8059.11 -2393.41,-1334.56 -5192.37,-2002 -7987.57,-2002 -2795.7,0 -5594.83,667.44 -7987.42,2002zm-4919.97 7614.08c961.81,-2989.1 2975.86,-5183.44 5481.64,-6580.67 2216.51,-1236.5 4819.4,-1854.98 7425.75,-1854.98 2605.85,0 5208.74,618 7425.74,1854.98 2505.76,1397.23 4519.82,3591.57 5481.15,6580.67l-25814.28 0 0 0z"/>
   <path class="fil2" d="M85911.22 11630.33l26151.04 0c113.51,0 215.23,45.48 288.78,119.73l0 2.31c74.02,74.74 120.38,177.94 120.38,291.54 0,114.12 -45.7,217.31 -119.25,292.72l-1.13 -1.16c-74.54,74.75 -176.9,121.56 -288.78,121.56l-26151.04 0c-111.88,0 -214.24,-46.81 -288.29,-121.56l-1.15 1.16c-74.02,-75.41 -119.73,-178.6 -119.73,-292.72 0,-113.6 46.35,-216.8 120.88,-291.54l0 -2.31c72.89,-74.25 175.27,-119.73 288.29,-119.73zm26151.04 -1180.11l-26151.04 0c-432.43,0 -826.85,179.27 -1113.98,468.5l-1.16 -1.15c-285.33,288.74 -462.73,686.96 -462.73,1126.34 0,437.09 177.4,834.64 462.73,1123.39l0 2.31c286,288.58 680.58,467.85 1115.14,467.85l26151.04 0c434.55,0 829.63,-179.27 1114.97,-467.85l0 -2.31c285.99,-288.75 463.37,-686.3 463.37,-1123.39 0,-439.38 -177.38,-837.6 -463.37,-1126.34l-1.15 1.15c-287.13,-289.23 -681.56,-468.5 -1113.82,-468.5l0 0z"/>
   <g>
    <path class="fil3" d="M107904.59 8401.92c-671.9,0 -1220.13,-164.87 -1220.13,-366.8 0,-201.92 548.23,-366.79 1220.13,-366.79 671.89,0 1219.64,164.87 1219.64,366.79 0,201.93 -547.75,366.8 -1219.64,366.8z"/>
    <path class="fil3" d="M103372.98 8401.92c-672.06,0 -1219.63,-164.87 -1219.63,-366.8 0,-201.92 547.57,-366.79 1219.63,-366.79 671.89,0 1219.96,164.87 1219.96,366.79 0,201.93 -548.07,366.8 -1219.96,366.8z"/>
    <path class="fil3" d="M98841.69 8401.92c-671.9,0 -1219.96,-164.87 -1219.96,-366.8 0,-201.92 548.06,-366.79 1219.96,-366.79 672.06,0 1219.64,164.87 1219.64,366.79 0,201.93 -547.58,366.8 -1219.64,366.8z"/>
    <path class="fil3" d="M94310.08 8401.92c-671.89,0 -1219.64,-164.87 -1219.64,-366.8 0,-201.92 547.75,-366.79 1219.64,-366.79 671.9,0 1219.97,164.87 1219.97,366.79 0,201.93 -548.07,366.8 -1219.97,366.8z"/>
    <path class="fil3" d="M89778.79 8401.92c-671.89,0 -1220.12,-164.87 -1220.12,-366.8 0,-201.92 548.23,-366.79 1220.12,-366.79 672.06,0 1219.63,164.87 1219.63,366.79 0,201.93 -547.57,366.8 -1219.63,366.8z"/>
    <path class="fil3" d="M106103.64 6289.78c-672.06,0 -1219.63,-164.87 -1219.63,-366.96 0,-201.92 547.57,-366.13 1219.63,-366.13 671.89,0 1220.12,164.21 1220.12,366.13 0,202.09 -548.23,366.96 -1220.12,366.96z"/>
    <path class="fil3" d="M101572.35 6289.78c-672.38,0 -1219.96,-164.87 -1219.96,-366.96 0,-201.92 547.58,-366.13 1219.96,-366.13 671.41,0 1219.64,164.21 1219.64,366.13 0,202.09 -548.23,366.96 -1219.64,366.96z"/>
    <path class="fil3" d="M97040.74 6289.78c-672.05,0 -1220.12,-164.87 -1220.12,-366.96 0,-201.92 548.07,-366.13 1220.12,-366.13 671.9,0 1219.47,164.21 1219.47,366.13 0,202.09 -547.57,366.96 -1219.47,366.96z"/>
    <path class="fil3" d="M92508.97 6289.78c-671.89,0 -1219.48,-164.87 -1219.48,-366.96 0,-201.92 547.59,-366.13 1219.48,-366.13 671.9,0 1220.13,164.21 1220.13,366.13 0,202.09 -548.23,366.96 -1220.13,366.96z"/>
    <path class="fil3" d="M101629.52 4149.03c-671.4,0 -1219.46,-164.87 -1219.46,-366.8 0,-202.08 548.06,-366.95 1219.46,-366.95 671.9,0 1220.13,164.87 1220.13,366.95 0,201.93 -548.23,366.8 -1220.13,366.8z"/>
    <path class="fil3" d="M97098.39 4149.03c-672.05,0 -1219.62,-164.87 -1219.62,-366.8 0,-202.08 547.57,-366.95 1219.62,-366.95 671.9,0 1219.49,164.87 1219.49,366.95 0,201.93 -547.59,366.8 -1219.49,366.8z"/>
    <path class="fil3" d="M107904.59 7078.28c-392.12,0 -757.23,50.77 -1029.63,132.46 -478.62,144.38 -774.75,430.13 -774.75,824.38 0,394.25 296.13,680.17 774.75,823.89 272.89,82.19 637.51,132.96 1029.63,132.96 391.64,0 756.75,-50.77 1029.14,-132.96 478.62,-143.72 775.25,-429.64 775.25,-823.89 0,-394.25 -295.97,-680 -774.76,-824.38 -272.88,-81.69 -637.99,-132.46 -1029.63,-132.46z"/>
    <path class="fil3" d="M103372.98 7078.28c-391.64,0 -756.75,50.77 -1029.14,132.46 -478.61,144.38 -774.76,430.13 -774.76,824.38 0,394.25 296.15,680.17 774.76,823.89 272.39,82.19 637.5,132.96 1029.14,132.96 392.13,0 756.57,-50.77 1029.62,-132.96 478.62,-143.72 774.77,-429.64 774.77,-823.89 0,-394.25 -296.15,-680 -774.77,-824.38 -272.39,-81.69 -637.49,-132.46 -1029.62,-132.46z"/>
    <path class="fil3" d="M98841.69 7078.28c-392.13,0 -756.73,50.77 -1029.62,132.46 -478.62,144.38 -774.77,430.13 -774.77,824.38 0,394.25 296.15,680.17 774.77,823.89 272.89,82.19 637.98,132.96 1029.62,132.96 391.64,0 756.75,-50.77 1029.14,-132.96 478.61,-143.72 774.76,-429.64 774.76,-823.89 0,-394.25 -296.15,-680 -774.76,-824.38 -272.39,-81.69 -637.5,-132.46 -1029.14,-132.46z"/>
    <path class="fil3" d="M94310.08 7078.28c-392.29,0 -756.75,50.77 -1029.64,132.46 -478.76,144.38 -774.75,430.13 -774.75,824.38 0,394.25 296.64,680.17 775.25,823.89 272.39,82.19 636.85,132.96 1029.14,132.96 391.64,0 756.58,-50.77 1029.62,-132.96 478.63,-143.72 774.78,-429.64 774.78,-823.89 0,-394.25 -296.15,-680 -774.78,-824.38 -273.04,-81.69 -637.48,-132.46 -1029.62,-132.46z"/>
    <path class="fil3" d="M89778.79 7078.28c-392.13,0 -757.23,50.77 -1029.62,132.46 -478.62,144.38 -774.77,430.13 -774.77,824.38 0,394.25 296.15,680.17 774.77,823.89 272.39,82.19 637.49,132.96 1029.62,132.96 391.64,0 756.75,-50.77 1029.15,-132.96 478.6,-143.72 774.75,-429.64 774.75,-823.89 0,-394.25 -296.15,-680 -774.75,-824.38 -272.4,-81.69 -637.51,-132.46 -1029.15,-132.46z"/>
    <path class="fil3" d="M106103.64 4966.14c-391.64,0 -756.74,50.76 -1029.78,132.8 -478.63,143.86 -774.78,429.62 -774.78,823.88 0,394.41 296.15,680.67 775.42,824.55 272.4,82.18 637.5,132.96 1029.14,132.96 391.64,0 756.59,-50.78 1029.64,-132.96 478.12,-143.88 774.75,-430.14 774.75,-824.55 0,-393.59 -296.15,-680.02 -774.75,-823.88 -273.05,-82.04 -637.51,-132.8 -1029.64,-132.8z"/>
    <path class="fil3" d="M101572.35 4966.14c-392.12,0 -757.23,50.76 -1029.62,132.8 -478.63,143.86 -774.76,429.62 -774.76,823.88 0,394.41 296.13,680.67 774.76,824.55 273.05,82.18 637.5,132.96 1029.62,132.96 391.64,0 756.75,-50.78 1029.14,-132.96 478.78,-143.88 774.77,-430.14 774.77,-824.55 0,-394.26 -295.99,-680.02 -774.77,-823.88 -272.39,-82.04 -637.5,-132.8 -1029.14,-132.8z"/>
    <path class="fil3" d="M97040.74 4966.14c-391.64,0 -756.73,50.76 -1029.62,132.8 -478.78,143.86 -774.93,429.62 -774.93,823.88 0,394.41 296.15,680.67 774.93,824.55 272.89,82.18 637.33,132.96 1029.62,132.96 392.14,0 756.75,-50.78 1029.64,-132.96 478.61,-143.88 774.75,-430.14 774.75,-824.55 0,-394.26 -296.14,-680.02 -774.75,-823.88 -272.89,-82.04 -637.5,-132.8 -1029.64,-132.8z"/>
    <path class="fil3" d="M92508.97 4966.14c-391.64,0 -756.75,50.76 -1029.63,132.8 -478.61,143.86 -774.28,430.29 -774.28,823.88 0,394.41 296.15,680.67 774.77,824.55 272.39,82.18 637.5,132.96 1029.14,132.96 392.12,0 757.23,-50.78 1029.63,-132.96 478.62,-143.88 774.75,-430.14 774.75,-824.55 0,-394.26 -296.13,-680.02 -774.75,-823.88 -272.4,-82.04 -637.51,-132.8 -1029.63,-132.8z"/>
    <path class="fil3" d="M101629.52 2825.39c-391.64,0 -756.25,50.76 -1029.14,132.96 -478.61,143.71 -774.75,429.64 -774.75,823.88 0,393.6 296.14,680.01 774.75,823.89 272.39,82.03 637.5,132.8 1029.14,132.8 392.14,0 757.23,-50.77 1029.62,-132.3 478.63,-144.38 774.78,-430.79 774.78,-824.39 0,-394.24 -296.15,-680.17 -774.78,-824.55l-2.29 0c-272.88,-81.53 -636.84,-132.29 -1027.33,-132.29z"/>
    <path class="fil3" d="M97098.39 2825.39c-390.48,0 -754.44,50.76 -1027.49,132.96l-2.13 0c-478.78,143.71 -774.93,429.64 -774.93,823.88 0,393.6 296.15,680.01 774.93,823.89 272.89,82.03 637.99,132.8 1029.62,132.8 392.14,0 756.75,-50.77 1029.64,-132.8 478.61,-143.88 774.76,-430.29 774.76,-823.89 0,-393.75 -296.15,-679.02 -775.41,-823.38 -272.24,-82.7 -637.35,-133.46 -1028.99,-133.46z"/>
   </g>
   <path class="fil3" d="M86376.9 26012.71l25220.17 0c562.31,0 1073.2,-232.19 1443.39,-605.94l0 -2.31c370.17,-373.57 600.14,-888.87 600.14,-1455.44 0,-566.56 -229.97,-1081.7 -600.14,-1455.45 -371.33,-375.38 -882.71,-608.23 -1443.39,-608.23l-25220.17 0c-561.17,0 -1072.22,232.85 -1444.04,608.23 -370.02,373.75 -599.51,888.89 -599.51,1455.45 0,566.57 229.49,1081.87 599.51,1455.44 371.82,375.56 882.87,608.25 1444.04,608.25zm25220.17 -1180.43l-25220.17 0c-241.45,0 -460.11,-98.74 -617.19,-257.33 -158.72,-160.41 -257.66,-382.34 -257.66,-625.93 0,-243.6 98.94,-465.03 257.66,-625.27 157.08,-159.26 375.74,-257.99 617.19,-257.99l25220.17 0c240.79,0 459.45,98.73 617.19,257.99 158.23,160.24 257.16,381.67 257.16,625.27 0,243.1 -98.44,464.37 -256.02,624.78l-1.14 -1.17c-158.89,160.25 -377.55,259.65 -617.19,259.65l0 0z"/>
   <path class="fil4" d="M112336.96 18380c35.05,323.63 323.33,556.98 643.72,520.93 320.38,-35.23 551.01,-326.28 515.96,-649.75 -68.3,-612.87 -245.2,-1221.12 -528.91,-1746.51 -276.97,-512.32 -656.66,-948.91 -1140.52,-1242.11 -495.47,-300.65 -1086.62,-446.68 -1770.48,-368.62 -496.15,56.55 -1040.93,232.84 -1630.92,557.47 -1056.17,581.45 -1742.98,168.85 -2445.34,-252.85 -893.51,-536.31 -1805.03,-1083.52 -3289.54,-521.43 -1073.85,406.32 -1752.95,905.42 -2284.31,1295.7 -565.59,415.91 -887.29,651.57 -1475.97,232.84 -809.98,-576.82 -1579.02,-1114.94 -2522.81,-1327.76 -968.04,-218.96 -2041.24,-75.74 -3373.73,749.13 -1570,972.39 -2389.31,510.17 -3374.38,-45.64 -326.12,-183.73 -667.48,-376.55 -1056.82,-547.71 -337.91,-148.84 -680.42,-221.45 -1016.7,-228.72 -658.29,-14.22 -1278.77,222.43 -1798.16,617.33 -501.23,380.03 -909.73,910.06 -1164.1,1498.28 -178.55,412.44 -283.21,858.61 -292.71,1308.27 -6.23,324.63 249.13,592.86 570.67,599.14 321.53,6.29 587.7,-251.69 593.92,-576.32 6.39,-289.23 76.33,-583.1 196.07,-860.93 176.41,-406.82 455.03,-770.3 794.75,-1028.12 320.87,-243.6 693.84,-390.28 1076.96,-381.85 186.08,4.14 378.69,45.82 573.62,131.31 340.2,150.15 655.52,328.09 956.25,497.44 1309.4,738.4 2399.46,1353.4 4548.16,22.98 1035.19,-641.32 1828.13,-761.7 2515.26,-606.58 712.2,160.91 1388.02,634.53 2102.34,1143.38 1268.11,902.62 1834.86,486.2 2832.87,-247.07 473.53,-347.43 1078.93,-792.46 2005.04,-1143.37 961.33,-363.5 1632.07,39.35 2289.39,434.25 989.01,593.37 1956.56,1174.16 3596.5,271.55 448.64,-247.06 848.3,-380.02 1201.46,-419.87 413.59,-47.47 761.16,35.39 1044.36,207.03 295.01,179.11 534.64,459.41 715.97,795.46 208.5,386.3 339.54,843.73 392.13,1312.72z"/>
   <path class="fil4" d="M113144.35 30488.94c208.01,-248.72 177.39,-620.14 -68.96,-830 -245.86,-210.03 -613.74,-179.27 -821.61,68.96l-93.36 110.63c-687.79,818.27 -1881.86,2239.49 -3209.28,1429.82 -948.39,-578.48 -1958.2,-1100.07 -2941.48,-1354.41 -1065.82,-275.67 -2090.36,-236.14 -2969.63,366.3 -301.39,206.55 -503.02,354.4 -687.95,489.5 -774.77,567.73 -1198.01,877.47 -1873.35,502.73 -184.11,-102.2 -417.03,-247.06 -665.67,-401.68 -1307.6,-811.98 -3013.22,-1871.53 -4549.31,-970.08 -300.57,176.29 -608.01,371.42 -909.23,562.11 -1011.62,640.64 -1939.52,1228.88 -2403.41,987.61 -193.27,-100.39 -362.8,-275.03 -532.33,-450.16l-1.14 -1.14 1.14 -1.17c-616.04,-635.69 -1236.51,-1275.69 -3147.19,-759.39 -97.8,26.29 -238.5,92.94 -427.85,182.57 -449.78,212.18 -1263.03,596.16 -1798.16,572.86 -199.5,-8.61 -347.58,-156.28 -328.42,-596.85 13.6,-324.61 -235.7,-599.14 -557.23,-613.35 -321.54,-13.74 -593.93,237.97 -607.36,562.59 -57.17,1331.74 584.26,1785.86 1443.21,1823.39 817.69,35.57 1798.82,-427.81 2340.83,-683.97 127.59,-59.87 221.95,-105.01 236.68,-108.49 1250.1,-338.18 1631.6,55.4 2009.64,445.69l1.13 -1.16c236.7,244.75 473.55,489 832.43,675.54 1055.01,547.71 2253.19,-211.68 3559.14,-1039.04 282.56,-179.09 571.33,-361.67 872.55,-538.44 932.34,-547.23 2302.34,303.46 3352.77,956.18 247.66,153.47 479.26,297.83 716.13,428.97 1324.13,734.91 1958.19,270.56 3120.48,-580.79 219.34,-160.91 460.12,-337.19 655.69,-471.3 561.66,-385.16 1268.61,-397.06 2028.79,-200.28 841.92,217.97 1754.11,693.26 2626.66,1225.58 2175.72,1327.12 3778.96,-580.78 4702.45,-1679.19l93.2 -110.14z"/>
  </g>
 </g>
</svg>
